# xmcd
#
# Track frame offsets: 
#        183
#        15428
#        33558
#        46133
#        60368
#        80033
#        95658
#        110065
#        127665
#        137363
#        151635
#        167473
#
# Disc length: 2464 seconds
#
# Revision: 3
# Processed by: cddbd v1.5.2PL0 Copyright (c) Steve Scherf et al.
# Submitted via: ExactAudioCopy v0.99pb4
#
DISCID=84099e0c
DTITLE=Hinojosa, Tish - Homeland
DYEAR=1989
DGENRE=Country
TTITLE0=Joaquin
TTITLE1=West Side Of Town
TTITLE2=Donde Voy (Where I Go)
TTITLE3=In The Night
TTITLE4=Love Is On Our Side
TTITLE5=All My Love
TTITLE6=Till You Love Me Again
TTITLE7=Voice Of The Big Guitar
TTITLE8=Rancherita
TTITLE9=Who Showed You The Way To My Heart
TTITLE10=Let Me Remember
TTITLE11=Amanecer
EXTD=
EXTT0=
EXTT1=
EXTT2=
EXTT3=
EXTT4=
EXTT5=
EXTT6=
EXTT7=
EXTT8=
EXTT9=
EXTT10=
EXTT11=
PLAYORDER=
